# xmcd CD database file
#
# Track frame offsets:
#	150
#	16712
#	45875
#	76337
#	111812
#	132487
#	154512
#	184125
#	209550
#	243875
#
# Disc length: 3439 seconds
#
# Revision: 0
# Processed by: cddbd v1.4PL0 Copyright (c) Steve Scherf et al.
# Submitted via: CDex 1.50beta10
#
DISCID=740d6d0a
DTITLE=Various Artist - Heart Broken Jazz -- My First Jazz
DYEAR=1997
DGENRE=Jazz
TTITLE0=When I Fall In Love -- Kimiko Itoh
TTITLE1=Yanks -- Fred Karlin
TTITLE2=Moon River -- Joe Locke and New York quartet
TTITLE3=LaVie En rose -- Masha Billsma Band
TTITLE4=My dear Friend -- East bounce
TTITLE5=Agua de Beber -- Camila Benson
TTITLE6=Soul Eyes -- McCoy Tyner
TTITLE7=The Shadow of  Your Smile -- Niels H.Q.Pederson
TTITLE8=To Touch You Again/ Lady Blue -- John Tropea
TTITLE9=Again -- Ryo Kawasaki
EXTD=YEAR: 1997
EXTT0=
EXTT1=
EXTT2=
EXTT3=
EXTT4=
EXTT5=
EXTT6=
EXTT7=
EXTT8=
EXTT9=
PLAYORDER=
